<svg fill="#000000" xmlns="http://www.w3.org/2000/svg"  viewBox="0 0 16 16" width="32px" height="32px"><path d="M 3.5 1 C 2.1250151 1 1 2.1250151 1 3.5 L 1 11.5 C 1 12.874985 2.1250151 14 3.5 14 L 11.5 14 C 12.874985 14 14 12.874985 14 11.5 L 14 3.5 C 14 2.1250151 12.874985 1 11.5 1 L 3.5 1 z M 3.5 2 L 11.5 2 C 12.335015 2 13 2.6649849 13 3.5 L 13 11.5 C 13 12.335015 12.335015 13 11.5 13 L 9.9042969 13 L 9.9042969 8.9667969 L 11.300781 8.9667969 L 11.509766 7.3574219 L 9.9042969 7.3574219 L 9.9042969 6.3320312 C 9.9042969 5.8660312 10.034031 5.5488281 10.707031 5.5488281 L 11.566406 5.5488281 L 11.566406 4.109375 C 11.417406 4.089375 10.907453 4.046875 10.314453 4.046875 C 9.0764531 4.046875 8.2304688 4.795875 8.2304688 6.171875 L 8.2304688 7.3574219 L 7 7.3535156 L 7 8.9628906 L 8.2304688 8.9667969 L 8.2304688 13 L 3.5 13 C 2.6649849 13 2 12.335015 2 11.5 L 2 3.5 C 2 2.6649849 2.6649849 2 3.5 2 z"/></svg>